<svg width="40" height="40" viewBox="0 0 40 40" fill="none" xmlns="http://www.w3.org/2000/svg">
<path d="M17.5713 21.1888L17.5631 21.171C17.5555 21.1541 17.5446 21.1292 17.5317 21.0969C17.5058 21.0322 17.4713 20.9376 17.4368 20.8176C17.368 20.5774 17.2991 20.2351 17.2991 19.8258C17.2991 18.5439 18.0434 17.5762 18.9832 17.5762C19.3817 17.5762 19.679 17.726 19.8762 17.9668C20.0729 18.207 20.1682 18.5354 20.1682 18.8906C20.1682 19.2883 20.0423 19.7822 19.8853 20.3105C19.8414 20.4583 19.795 20.6088 19.7482 20.7608C19.6271 21.1538 19.5029 21.5569 19.4098 21.9494L19.4098 21.9494C19.1958 22.8453 19.8583 23.5752 20.7426 23.5752C21.5481 23.5752 22.262 23.1508 22.7754 22.4163C23.2889 21.6815 23.6012 20.6369 23.6012 19.4007C23.6012 18.309 23.2089 17.3831 22.5381 16.7301C21.8672 16.0771 20.9162 15.6956 19.7963 15.6956C17.2013 15.6956 15.681 17.6389 15.681 19.6484C15.681 20.4306 15.9825 21.2677 16.3519 21.725C16.3519 21.725 16.3519 21.725 16.3519 21.7251L16.333 21.7404C16.4069 21.8291 16.418 21.9105 16.3958 22.0029C16.3648 22.1302 16.3172 22.3232 16.2711 22.5099C16.2129 22.7457 16.1573 22.9713 16.1408 23.0415L17.5713 21.1888ZM17.5713 21.1888L17.5707 21.1914L17.5631 21.2236L17.5341 21.3466L17.4292 21.7911L17.0997 23.1884C16.8526 24.2371 16.5846 25.3756 16.5014 25.7342C16.3189 26.5152 16.3874 27.609 16.4634 28.334C13.0842 26.9936 10.691 23.6933 10.691 19.8332C10.691 14.7828 14.7829 10.6909 19.8333 10.6909C24.8837 10.6909 28.9755 14.7828 28.9755 19.8332C28.9755 24.8835 24.8837 28.9754 19.8333 28.9754C18.9006 28.9754 18.0039 28.835 17.1575 28.5755C17.5306 27.9634 18.0773 26.9801 18.2823 26.1932L18.2823 26.1931C18.3378 25.9788 18.4801 25.4336 18.6085 24.942L18.7782 24.2928L18.8316 24.0885L18.8362 24.071M17.5713 21.1888L18.8362 24.071M18.8362 24.071C18.996 24.3405 19.2795 24.5863 19.6308 24.7681C20.0055 24.962 20.4594 25.0841 20.9274 25.0841C23.71 25.0841 25.7088 22.5253 25.7088 19.3564C25.7088 16.314 23.2234 14.0389 20.0329 14.0389C18.0497 14.0389 16.5287 14.7045 15.5034 15.7348C14.4783 16.765 13.9503 18.1584 13.9503 19.6114C13.9503 20.2881 14.1306 21.0467 14.4542 21.7032C14.7776 22.3593 15.2458 22.9163 15.8237 23.1856C15.8236 23.1856 15.8236 23.1856 15.8236 23.1856L15.834 23.1635L18.8362 24.071Z" fill="#697687" stroke="#697687" stroke-width="0.0488281"/>
<rect x="0.5" y="0.5" width="39" height="39" rx="19.5" stroke="#697687"/>
</svg>
